. 
  
http://www.torrentday.com/        :     The Hottest Private Tracker On The Net!!!
 
http://www.torrentday.com          :     Once & For all ;)


               www . TorrentDay . Com 

(((((((((((((= Enjoy No RAR releases =))))))))))))))))))))


...................................NFO:....................................

.[img]http://img148.imageshack.us/img148/7545/voyage20of20the20dawn20.jpg[/img]

The Chronicles Of Narnia T.Voy.o.t.D.T. 2010 R5 AC3-5.1 HQ Hive-CM8



[b]Thx Hive

CM8 Doing It Right The First Time :D

Sources:
Video: Russian R5 DVD-9
Hroniki.Narnii.Pokoritel.Zari.2010.D.DVD.ELEKTRI4KA
Audio: Line from Imagine Release
thx
and the 5.1 russian audiotrack


Video 

added bit brightness,contrast,sharpness,rgb colours,chroma and denoise.
This movie has some intense water/flying scenes along with fog+darkness combined 
i had to encode some these intense parts with higher bitrate than the rest of the movie. 
So the main movie parts have bitrate 1800 and the intense scenes have bitrate 2500 to reduce pixelation.

Audio

cleaned the line from lot of hiss,noise and hum, adjusted noticable loudness inbetween the left and the right channel. 
cleaned the russian track from voice and embedded the line into the russian 5.1 track.

Video: 720x400 @mixed bitrate 1980 2pass
Audio: English AC3 5.1 @384
Sample: yes included[/b]
 
http://www.imdb.com/title/tt0980970/


General
Complete name                    : The Chronicles Of Narnia T.Voy.o.t.D.T. 2010 R5.AC3-5.1.HQ.Hive-CM8.avi
Format                           : AVI
Format/Info                      : Audio Video Interleave
File size                        : 1.79 GiB
Duration                         : 1h 48mn
Overall bit rate                 : 2 373 Kbps
Writing application              : Nandub v1.0rc2
Writing library                  : Nandub build 1853/release

Video
ID                               : 0
Format                           : MPEG-4 Visual
Format profile                   : Advanced Simple@L5
Format settings, BVOP            : Yes
Format settings, QPel            : Yes
Format settings, GMC             : No warppoints
Format settings, Matrix          : Default (H.263)
Muxing mode                      : Packed bitstream
Codec ID                         : XVID
Codec ID/Hint                    : XviD
Duration                         : 1h 48mn
Bit rate                         : 1 980 Kbps
Width                            : 720 pixels
Height                           : 400 pixels
Display aspect ratio             : 16:9
Frame rate                       : 25.000 fps
Color space                      : YUV
Chroma subsampling               : 4:2:0
Bit depth                        : 8 bits
Scan type                        : Progressive
Bits/(Pixel*Frame)               : 0.275
Stream size                      : 1.49 GiB (83%)
Writing library                  : XviD 1.2.1 (UTC 2008-12-04)

Audio
ID                               : 1
Format                           : AC-3
Format/Info                      : Audio Coding 3
Mode extension                   : CM (complete main)
Codec ID                         : 2000
Duration                         : 1h 48mn
Bit rate mode                    : Constant
Bit rate                         : 384 Kbps
Channel(s)                       : 6 channels
Channel positions                : Front: L C R, Side: L R, LFE
Sampling rate                    : 48.0 KHz
Bit depth                        : 16 bits
Stream size                      : 297 MiB (16%)
Alignment                        : Split accross interleaves
Interleave, duration             : 40 ms (1.00 video frame)
Interleave, preload duration     : 500 ms




Georgie Henley ... Lucy Pevensie
Skandar Keynes ... Edmund Pevensie
Ben Barnes ... Caspian
Will Poulter ... Eustace Scrubb
Gary Sweet ... Drinian
Terry Norris ... Lord Bern
Bruce Spence ... Lord Rhoop
Bille Brown ... Coriakin
Laura Brent ... Lilliandil
Colin Moody ... Auctioneer
Tilda Swinton ... The White Witch
Anna Popplewell ... Susan Pevensie
William Moseley ... Peter Pevensie


Lucy and Edmund Pevensie return to Narnia with their cousin Eustace where they meet up with Prince Caspian 
for a trip across the sea aboard the royal ship The Dawn Treader. Along the way they encounter dragons, dwarves, 
merfolk, and a band of lost warriors before reaching the edge of the world. 



[img]http://img560.imageshack.us/img560/4597/nanay.png[/img]
[img]http://img837.imageshack.us/img837/3323/nanana.png[/img]
[img]http://img291.imageshack.us/img291/8773/nananana.png[/img]
[img]http://img546.imageshack.us/img546/9416/nanananana.png[/img]
[img]http://img827.imageshack.us/img827/5525/nananananana.png[/img]
[img]http://img526.imageshack.us/img526/1341/nanananananana.png[/img]
[img]http://img262.imageshack.us/img262/3829/nananananananana.png[/img]
[img]http://img521.imageshack.us/img521/6261/nanananannaananana.png[/img]
[img]http://img814.imageshack.us/img814/2162/nanananannanaanannaana.png[/img]
[img]http://img810.imageshack.us/img810/1336/nanananannannaaanannaan.png[/img]
[img]http://img402.imageshack.us/img402/4610/nanananannannnaaaananna.png[/img]
[img]http://img266.imageshack.us/img266/8327/nanananannnaannannaaaan.png[/img]
[img]http://img412.imageshack.us/img412/6519/nanananannnaannnaaaanan.png[/img]
[img]http://img502.imageshack.us/img502/1866/nanananannnanaannannaaa.png[/img]





Greetz

iNK,LUSi,,MAGNET,CLASSiFiED,THC,LEGi0N,IMAGiNE,ViSiON,WBZ,FLAWL3SS,NOVA
Rapeseed,D2U,SAFC,goldadvance,MEMORY100,KaN1vE,Unevano,Pinnz,Wayne,Mr Hive
and all P2P groups 
Great Work Guys :D